<?xml version="1.0" ?><svg height="500" id="svg2" version="1.1" width="500" xmlns="http://www.w3.org/2000/svg" xmlns:cc="http://creativecommons.org/ns#" xmlns:dc="http://purl.org/dc/elements/1.1/" xmlns:inkscape="http://www.inkscape.org/namespaces/inkscape" xmlns:rdf="http://www.w3.org/1999/02/22-rdf-syntax-ns#" xmlns:sodipodi="http://sodipodi.sourceforge.net/DTD/sodipodi-0.dtd" xmlns:svg="http://www.w3.org/2000/svg"><defs id="defs4"/><g id="layer1" transform="translate(0,-552.36218)"><rect height="500" id="rect3758-1" rx="250" ry="250" style="fill:#2a5b83;fill-opacity:1;stroke:none" width="500" x="0" y="552.36218"/><g id="layer1-9" transform="translate(-549.00515,80.294372)"/><g id="layer1-6" transform="translate(-575.71429,39.999999)"/><g id="layer1-2" transform="matrix(0.95200814,0,0,0.95245472,13.096549,39.137296)"/><path d="m 356.5,642.36266 c -0.41687,-0.004 -0.84683,0.0154 -1.26316,0.0263 -31.73689,0.82773 -128.14077,0.35511 -180.42105,0.10528 l 0,92.02618 -62.44737,0 0,-79.76303 c -12.64538,10.40867 -22.105264,25.78309 -22.105264,39.81573 0,6.84337 -0.02888,32.32866 -0.05262,49.68412 l 96.131584,0 -9.39474,10.81577 -86.736844,0 C 90.129974,811.24734 90,883.26349 90,908.41488 c 0,25.89034 27.77966,53.9473 53.65789,53.9473 35.3365,0 159.06701,-0.1579 210.78948,-0.1579 28.01881,0 55.55263,-25.92107 55.55263,-54.6578 0,-43.53958 -0.0609,-102.4696 -0.10528,-152.47345 l -86.78947,0 -9.39474,-10.81578 96.18421,0 c -0.0143,-17.18617 -0.0526,-39.11496 -0.0526,-49.71046 0,-25.2825 -27.08042,-52.01801 -53.34211,-52.18413 z m -23.18422,22.18419 c 13.34934,0.008 25.91847,0 40.3158,0 4.79395,0 10.23683,5.30902 10.23683,10.10525 l 0,41.21045 c 0,4.80794 -5.43114,10.10525 -10.23683,10.10525 -13.91233,0 -25.51881,-0.005 -40.3421,0 -4.85913,0.002 -10.5,-5.24387 -10.5,-10.10525 0,-12.44786 0.007,-27.69167 0,-41.21045 -0.002,-4.86177 5.66682,-10.10779 10.5263,-10.10525 z m -83.28946,56.57885 c 45.3411,0 82.10526,36.52354 82.10526,81.57883 0,45.05529 -36.76416,81.57883 -82.10526,81.57883 -45.34111,0 -82.07895,-36.52354 -82.07895,-81.57883 0,-45.05529 36.73784,-81.57883 82.07895,-81.57883 z m 0.0527,9.10526 c -39.68295,0 -71.84211,32.20014 -71.84211,71.92094 0,39.72079 32.15916,71.92095 71.84211,71.92095 39.68295,0 71.86842,-32.20016 71.86842,-71.92095 0,-39.7208 -32.18547,-71.92094 -71.86842,-71.92094 z m 0.68421,17.52628 c 29.58938,0 53.55263,24.00197 53.55263,53.60519 0,29.60322 -23.96325,53.60518 -53.55263,53.60518 -29.58939,0 -53.57896,-24.00196 -53.57896,-53.60518 0,-29.60322 23.98957,-53.60519 53.57896,-53.60519 z" id="rect2989-1" style="fill:#ffffff;fill-opacity:1;stroke:none"/></g></svg>